<svg xmlns="http://www.w3.org/2000/svg" viewBox="-30 -30 312 130" width="600"><rect x="-30" y="-30" width="312" height="130" fill="#ffffff" stroke="#e5e7eb"/>
  <path id="LOGO_UNYCO" d="M245.447,81.235h14.214c1.421,3.131,3.886,4.365,8.434,4.365,6.254,0,9-2.941,9-10.057V70.894a13.369,13.369,0,0,1-11.655,6.262c-9.854,0-20.374-6.642-20.374-23.814V29.814h14.215V53.342c0,7.4,3.6,10.532,8.907,10.532,5.117,0,8.906-3.32,8.906-10.532V29.814h14.215V75.069c0,16.317-10.424,22.864-23.216,22.864C257.008,97.933,247.818,92.809,245.447,81.235ZM354.334,73.1s0,0,0,0c-.2-.15-.379-.285-.524-.4l-.068-.054-.051-.041c-.152-.121-.327-.262-.535-.439l-.261-.223A47.629,47.629,0,0,1,347.973,67l9.411-10.011a30.322,30.322,0,0,0,5.277,5.21c.3.228.595.442.89.649a11.277,11.277,0,0,0,6.263,1.786c6.444,0,10.8-4.648,10.8-11.384s-4.357-11.385-10.8-11.385a10.824,10.824,0,0,0-8.055,3.268L338.507,71.118a25.056,25.056,0,0,1-17.82,6.8c-14.783,0-25.205-10.436-25.205-24.666S305.9,28.581,320.687,28.581c1.147,0,2.97.07,4.06.194V42.321a18.012,18.012,0,0,0-4.06-.457c-6.444,0-10.8,4.648-10.8,11.385s4.359,11.384,10.8,11.384a10.814,10.814,0,0,0,8.065-3.281l23.253-25.984a25.057,25.057,0,0,1,17.809-6.786c14.783,0,25.205,10.435,25.205,24.667S384.6,77.915,369.815,77.915A25.718,25.718,0,0,1,354.334,73.1Zm-210.849-19V29.814H157.7V54.1c0,7.4,3.6,10.531,8.907,10.531s8.907-3.131,8.907-10.531V29.814h14.215V54.1c0,15.749-9.288,23.813-23.122,23.813S143.484,69.945,143.484,54.1ZM226.3,76.681V52.394c0-7.4-3.6-10.531-8.907-10.531s-8.907,3.13-8.907,10.531V76.681H194.276V52.394c0-15.749,9.286-23.813,23.121-23.813s23.121,7.969,23.121,23.813V76.681Z" transform="translate(-143.484 -28.581)" fill="#2E6299"/>
</svg>